<?xml version="1.0" encoding="UTF-8"?>
<svg width="161px" height="39px" viewBox="0 0 161 39" version="1.1" xmlns="http://www.w3.org/2000/svg" xmlns:xlink="http://www.w3.org/1999/xlink">
    <!-- Generator: Sketch 61.2 (89653) - https://sketch.com -->
    <title>Group</title>
    <desc>Created with Sketch.</desc>
    <g id="Page-1" stroke="none" stroke-width="1" fill="none" fill-rule="evenodd">
        <g id="02-copy" transform="translate(-33.000000, -15.000000)" fill="#FFFFFF">
            <g id="head-bar">
                <g id="Group" transform="translate(33.000000, 15.000000)">
                    <path d="M20.7334993,5.46339365 C20.0241357,5.46339365 19.4491008,4.89558401 19.4491008,4.19513349 C19.4491008,3.49468297 20.0241357,2.92678731 20.7334993,2.92678731 C21.4428629,2.92678731 22.0179849,3.49468297 22.0179849,4.19513349 C22.0179849,4.89558401 21.4428629,5.46339365 20.7334993,5.46339365 Z M14.607779,5.46339365 C13.8983282,5.46339365 13.3232933,4.89558401 13.3232933,4.19513349 C13.3232933,3.49468297 13.8983282,2.92678731 14.607779,2.92678731 C15.3171426,2.92678731 15.8921775,3.49468297 15.8921775,4.19513349 C15.8921775,4.89558401 15.3171426,5.46339365 14.607779,5.46339365 Z M7,0 L7,2.92678731 L10.2604767,2.92678731 C10.9698403,2.92678731 11.5448752,3.49468297 11.5448752,4.19513349 C11.5448752,4.89558401 10.9698403,5.46339365 10.2604767,5.46339365 L7,5.46339365 L7,8 L40,8 L40,0 L7,0 L7,0 Z" id="Fill-1"></path>
                    <path d="M18,7 L18,8.37418322 L20.8292977,8.37418322 C21.5297407,8.37418322 22.0975442,8.94556234 22.0975442,9.6503094 C22.0975442,10.3550565 21.5297407,10.926349 20.8292977,10.926349 L18,10.926349 L18,16.0305941 L20.8292977,16.0305941 C21.5297407,16.0305941 22.0975442,16.6019733 22.0975442,17.3067203 C22.0975442,18.0114674 21.5297407,18.5828465 20.8292977,18.5828465 L18,18.5828465 L18,23.6870916 L18.2927186,23.6870916 C18.9931616,23.6870916 19.5609651,24.2584707 19.5609651,24.9631312 C19.5609651,25.6679649 18.9931616,26.2391709 18.2927186,26.2391709 L18,26.2391709 L18,28.7914233 L20.8292977,28.7914233 C21.5297407,28.7914233 22.0975442,29.3627158 22.0975442,30.0674629 C22.0975442,30.77221 21.5297407,31.3435025 20.8292977,31.3435025 L18,31.3435025 L18,39 L26,39 L26,7 L18,7" id="Fill-2"></path>
                    <path d="M3,7.00003391 C3,7.55230764 2.55229246,8 2,8 C1.44770754,8 1,7.55230764 1,7.00003391 C1,6.44776018 1.44770754,6 2,6 C2.55229246,6 3,6.44776018 3,7.00003391" id="Fill-3"></path>
                    <path d="M18,11.9999661 C18,12.5522398 17.5522925,13 17,13 C16.4477075,13 16,12.5522398 16,11.9999661 C16,11.4476924 16.4477075,11 17,11 C17.5522925,11 18,11.4476924 18,11.9999661" id="Fill-4"></path>
                    <path d="M18,15 C18,15.5522925 17.5522925,16 17,16 C16.4477075,16 16,15.5522925 16,15 C16,14.4477075 16.4477075,14 17,14 C17.5522925,14 18,14.4477075 18,15" id="Fill-5"></path>
                    <path d="M15,15 C15,15.5522925 14.5523076,16 13.9999661,16 C13.4476924,16 13,15.5522925 13,15 C13,14.4477075 13.4476924,14 13.9999661,14 C14.5523076,14 15,14.4477075 15,15" id="Fill-6"></path>
                    <path d="M18,22.0000339 C18,22.5523076 17.5522925,23 17,23 C16.4477075,23 16,22.5523076 16,22.0000339 C16,21.4476924 16.4477075,21 17,21 C17.5522925,21 18,21.4476924 18,22.0000339" id="Fill-7"></path>
                    <path d="M10,22.0000339 C10,22.5523076 9.55223982,23 8.99996609,23 C8.44769236,23 8,22.5523076 8,22.0000339 C8,21.4476924 8.44769236,21 8.99996609,21 C9.55223982,21 10,21.4476924 10,22.0000339" id="Fill-8"></path>
                    <path d="M15,22.0000339 C15,22.5523076 14.5523076,23 13.9999661,23 C13.4476924,23 13,22.5523076 13,22.0000339 C13,21.4476924 13.4476924,21 13.9999661,21 C14.5523076,21 15,21.4476924 15,22.0000339" id="Fill-9"></path>
                    <path d="M18,28 C18,28.552255 17.5522925,29 17,29 C16.4477075,29 16,28.552255 16,28 C16,27.447745 16.4477075,27 17,27 C17.5522925,27 18,27.447745 18,28" id="Fill-10"></path>
                    <path d="M15,28 C15,28.552255 14.5523076,29 13.9999661,29 C13.4476924,29 13,28.552255 13,28 C13,27.447745 13.4476924,27 13.9999661,27 C14.5523076,27 15,27.447745 15,28" id="Fill-11"></path>
                    <path d="M10,30 C10,30.5522925 9.55223982,31 8.99996609,31 C8.44769236,31 8,30.5522925 8,30 C8,29.4477075 8.44769236,29 8.99996609,29 C9.55223982,29 10,29.4477075 10,30" id="Fill-12"></path>
                    <path d="M18,33 C18,33.552255 17.5522925,34 17,34 C16.4477075,34 16,33.552255 16,33 C16,32.447745 16.4477075,32 17,32 C17.5522925,32 18,32.447745 18,33" id="Fill-13"></path>
                    <path d="M13,33 C13,33.552255 12.5523076,34 12.0000339,34 C11.4477602,34 11,33.552255 11,33 C11,32.447745 11.4477602,32 12.0000339,32 C12.5523076,32 13,32.447745 13,33" id="Fill-14"></path>
                    <path d="M13,37 C13,37.5522925 12.5523076,38 12.0000339,38 C11.4477602,38 11,37.5522925 11,37 C11,36.4476397 11.4477602,36 12.0000339,36 C12.5523076,36 13,36.4476397 13,37" id="Fill-15"></path>
                    <path d="M5,30 C5,30.5522925 4.55236028,31 4,31 C3.44770754,31 3,30.5522925 3,30 C3,29.4477075 3.44770754,29 4,29 C4.55236028,29 5,29.4477075 5,30" id="Fill-16"></path>
                    <path d="M8,28 C8,28.552255 7.55230764,29 7.00003391,29 C6.44776018,29 6,28.552255 6,28 C6,27.447745 6.44776018,27 7.00003391,27 C7.55230764,27 8,27.447745 8,28" id="Fill-17"></path>
                    <path d="M18,35 C18,35.5522925 17.5522925,36 17,36 C16.4477075,36 16,35.5522925 16,35 C16,34.4476397 16.4477075,34 17,34 C17.5522925,34 18,34.4476397 18,35" id="Fill-18"></path>
                    <path d="M15,35 C15,35.5522925 14.5523076,36 13.9999661,36 C13.4476924,36 13,35.5522925 13,35 C13,34.4476397 13.4476924,34 13.9999661,34 C14.5523076,34 15,34.4476397 15,35" id="Fill-19"></path>
                    <path d="M8,35 C8,35.5522925 7.55230764,36 7.00003391,36 C6.44776018,36 6,35.5522925 6,35 C6,34.4476397 6.44776018,34 7.00003391,34 C7.55230764,34 8,34.4476397 8,35" id="Fill-20"></path>
                    <path d="M5,28 C5,28.552255 4.55236028,29 4,29 C3.44770754,29 3,28.552255 3,28 C3,27.447745 3.44770754,27 4,27 C4.55236028,27 5,27.447745 5,28" id="Fill-21"></path>
                    <path d="M15,25 C15,25.5523603 14.5523076,26 13.9999661,26 C13.4476924,26 13,25.5523603 13,25 C13,24.4477754 13.4476924,24 13.9999661,24 C14.5523076,24 15,24.4477754 15,25" id="Fill-22"></path>
                    <path d="M10,25 C10,25.5523603 9.55223982,26 8.99996609,26 C8.44769236,26 8,25.5523603 8,25 C8,24.4477754 8.44769236,24 8.99996609,24 C9.55223982,24 10,24.4477754 10,25" id="Fill-23"></path>
                    <path d="M5,25 C5,25.5523603 4.55236028,26 4,26 C3.44770754,26 3,25.5523603 3,25 C3,24.4477754 3.44770754,24 4,24 C4.55236028,24 5,24.4477754 5,25" id="Fill-24"></path>
                    <path d="M7,22.0000339 C7,22.5523076 6.55230764,23 6.00003391,23 C5.44769236,23 5,22.5523076 5,22.0000339 C5,21.4476924 5.44769236,21 6.00003391,21 C6.55230764,21 7,21.4476924 7,22.0000339" id="Fill-25"></path>
                    <path d="M3,22.0000339 C3,22.5523076 2.55229246,23 2,23 C1.44770754,23 1,22.5523076 1,22.0000339 C1,21.4476924 1.44770754,21 2,21 C2.55229246,21 3,21.4476924 3,22.0000339" id="Fill-26"></path>
                    <path d="M3,37 C3,37.5522925 2.55229246,38 2,38 C1.44770754,38 1,37.5522925 1,37 C1,36.4476397 1.44770754,36 2,36 C2.55229246,36 3,36.4476397 3,37" id="Fill-27"></path>
                    <path d="M13,17 C13,17.552255 12.5523076,18 12.0000339,18 C11.4477602,18 11,17.552255 11,17 C11,16.447745 11.4477602,16 12.0000339,16 C12.5523076,16 13,16.447745 13,17" id="Fill-28"></path>
                    <path d="M7,20 C7,20.5522925 6.55230764,21 6.00003391,21 C5.44769236,21 5,20.5522925 5,20 C5,19.4477075 5.44769236,19 6.00003391,19 C6.55230764,19 7,19.4477075 7,20" id="Fill-29"></path>
                    <path d="M10,20 C10,20.5522925 9.55223982,21 8.99996609,21 C8.44769236,21 8,20.5522925 8,20 C8,19.4477075 8.44769236,19 8.99996609,19 C9.55223982,19 10,19.4477075 10,20" id="Fill-30"></path>
                    <path d="M5,20 C5,20.5522925 4.55230764,21 4.00003391,21 C3.44776018,21 3,20.5522925 3,20 C3,19.4477075 3.44776018,19 4.00003391,19 C4.55230764,19 5,19.4477075 5,20" id="Fill-31"></path>
                    <path d="M7,17 C7,17.552255 6.55230764,18 6.00003391,18 C5.44769236,18 5,17.552255 5,17 C5,16.447745 5.44769236,16 6.00003391,16 C6.55230764,16 7,16.447745 7,17" id="Fill-32"></path>
                    <path d="M4,17 C4,17.552255 3.55230764,18 2.99996609,18 C2.44769236,18 2,17.552255 2,17 C2,16.447745 2.44769236,16 2.99996609,16 C3.55230764,16 4,16.447745 4,17" id="Fill-33"></path>
                    <path d="M10,15 C10,15.5522925 9.55230764,16 9.00003391,16 C8.44776018,16 8,15.5522925 8,15 C8,14.4477075 8.44776018,14 9.00003391,14 C9.55230764,14 10,14.4477075 10,15" id="Fill-34"></path>
                    <path d="M2,15 C2,15.5522925 1.55230764,16 1.00003391,16 C0.44769236,16 0,15.5522925 0,15 C0,14.4477075 0.44769236,14 1.00003391,14 C1.55230764,14 2,14.4477075 2,15" id="Fill-35"></path>
                    <path d="M6,2.00003391 C6,2.55230764 5.55229246,3 5,3 C4.44770754,3 4,2.55230764 4,2.00003391 C4,1.44776018 4.44770754,1 5,1 C5.55229246,1 6,1.44776018 6,2.00003391" id="Fill-36"></path>
                    <polyline id="Fill-37" points="58.5081956 34 56.4918044 34 56.4918044 18.7557104 51 18.7557104 51 17 64 17 64 18.7557104 58.5081956 18.7557104 58.5081956 34"></polyline>
                    <path d="M79.2430867,26.8433377 L77.2755429,21.5972914 C77.0209874,20.9335081 76.7585725,20.1190039 76.488473,19.1537789 C76.3186237,19.8950633 76.0755953,20.7096549 75.7593002,21.5972914 L73.7685277,26.8433377 L79.2430867,26.8433377 Z M81.9629446,34 L79.8565524,28.6151158 L73.0741981,28.6151158 L70.9907725,34 L69,34 L75.6897887,17 L77.3448798,17 L84,34 L81.9629446,34 L81.9629446,34 Z" id="Fill-38"></path>
                    <polyline id="Fill-39" points="103 34 100.727922 34 94.6704773 25.7556536 92.9316948 27.3372142 92.9316948 34 91 34 91 17 92.9316948 17 92.9316948 25.4300769 100.466419 17 102.7505 17 96.0688768 24.3837746 103 34"></polyline>
                    <path d="M117.243349,26.8433377 L115.275892,21.5972914 C115.0209,20.9335081 114.758922,20.1190039 114.488211,19.1537789 C114.318798,19.8950633 114.075159,20.7096549 113.759038,21.5972914 L111.768877,26.8433377 L117.243349,26.8433377 Z M119.962683,34 L117.856378,28.6151158 L111.073761,28.6151158 L108.991035,34 L107,34 L113.690051,17 L115.34488,17 L122,34 L119.962683,34 L119.962683,34 Z" id="Fill-40"></path>
                    <polyline id="Fill-41" points="131.877152 34 130 34 130 17 139 17 139 18.7557104 131.877152 18.7557104 131.877152 24.9765856 138.569246 24.9765856 138.569246 26.7324715 131.877152 26.7324715 131.877152 34"></polyline>
                    <path d="M147.140693,25.4944177 C147.140693,27.7309256 147.642432,29.4271842 148.64591,30.5831934 C149.648491,31.7390321 151.106137,32.3169515 153.017951,32.3169515 C154.945024,32.3169515 156.399978,31.7409071 157.383709,30.5888183 C158.366543,29.4365591 158.858409,27.7385107 158.858409,25.4944177 C158.858409,23.2729948 158.368338,21.5880713 157.389095,20.4394768 C156.409851,19.291138 154.960283,18.7168833 153.041288,18.7168833 C151.114215,18.7168833 149.648491,19.2948879 148.64591,20.4508119 C147.642432,21.6069063 147.140693,23.2879946 147.140693,25.4944177 Z M161,25.4944177 C161,28.1376254 160.296309,30.2160386 158.888029,31.7297425 C157.480646,33.2431054 155.523954,34 153.017951,34 C150.4563,34 148.478963,33.256486 147.087737,31.7692022 C145.695613,30.2820037 145,28.1827953 145,25.4717475 C145,22.7834551 145.697408,20.6993317 147.093122,19.2195479 C148.488837,17.7398493 150.471558,17 153.041288,17 C155.539212,17 157.490519,17.7531446 158.894312,19.2590929 C160.298104,20.7652969 161,22.8437953 161,25.4944177 L161,25.4944177 Z" id="Fill-42"></path>
                </g>
            </g>
        </g>
    </g>
</svg>